<svg xmlns="http://www.w3.org/2000/svg" xmlns:xlink="http://www.w3.org/1999/xlink" width="1920" zoomAndPan="magnify" viewBox="0 0 1440 809.999993" height="1080" preserveAspectRatio="xMidYMid meet" version="1.0"><defs><g/></defs><g fill="#83f944" fill-opacity="1"><g transform="translate(-9.282617, 503.612656)"><g><path d="M 236.488281 -17.457031 L 236.488281 -142.050781 L 178.953125 -142.050781 L 178.953125 -56.742188 C 173.796875 -55.949219 168.238281 -55.152344 163.082031 -55.152344 C 53.566406 -55.152344 48.410156 -224.585938 163.082031 -228.554688 C 193.238281 -229.347656 211.492188 -222.996094 222.601562 -218.234375 L 229.347656 -275.769531 C 224.1875 -277.359375 196.808594 -287.277344 163.082031 -286.085938 C -33.726562 -278.945312 -24.203125 1.585938 163.082031 1.585938 C 190.0625 1.585938 214.664062 -5.160156 236.488281 -17.457031 Z M 236.488281 -17.457031 "/></g></g></g><g fill="#83f944" fill-opacity="1"><g transform="translate(257.742375, 503.612656)"><g><path d="M 31.742188 -283.707031 L 31.742188 0 L 178.558594 0 L 178.558594 -56.742188 L 88.484375 -56.742188 L 88.484375 -283.707031 Z M 31.742188 -283.707031 "/></g></g></g><g fill="#83f944" fill-opacity="1"><g transform="translate(453.349082, 503.612656)"><g><path d="M 168.238281 3.96875 C 363.460938 3.96875 363.460938 -288.46875 168.238281 -288.46875 C -26.980469 -288.46875 -26.980469 3.96875 168.238281 3.96875 Z M 168.238281 -54.757812 C 54.757812 -54.757812 54.757812 -230.140625 168.238281 -230.140625 C 281.722656 -230.140625 281.722656 -54.757812 168.238281 -54.757812 Z M 168.238281 -54.757812 "/></g></g></g><g fill="#83f944" fill-opacity="1"><g transform="translate(789.411732, 503.612656)"><g><path d="M 168.238281 3.96875 C 363.460938 3.96875 363.460938 -288.46875 168.238281 -288.46875 C -26.980469 -288.46875 -26.980469 3.96875 168.238281 3.96875 Z M 168.238281 -54.757812 C 54.757812 -54.757812 54.757812 -230.140625 168.238281 -230.140625 C 281.722656 -230.140625 281.722656 -54.757812 168.238281 -54.757812 Z M 168.238281 -54.757812 "/></g></g></g><g fill="#83f944" fill-opacity="1"><g transform="translate(1125.474383, 503.612656)"><g><path d="M 161.890625 -163.480469 L 49.996094 -288.070312 L 31.742188 -288.070312 L 31.742188 0 L 89.277344 0 L 89.277344 -158.320312 L 161.890625 -82.136719 L 234.503906 -158.320312 L 234.109375 0 L 291.644531 0 L 291.644531 -288.070312 L 273.789062 -288.070312 Z M 161.890625 -163.480469 "/></g></g></g></svg>