<svg width="462" height="292" viewBox="0 0 462 292" fill="none" xmlns="http://www.w3.org/2000/svg">
<path d="M230 239V48.5M230 239H418.25M230 239H44M230 239L371.75 97.25M230 239L88.25 97.25" stroke="#262D2A" stroke-width="4" stroke-dasharray="4.5 13.5"/>
<rect x="180.5" y="186.5" width="99" height="100.5" rx="27" fill="#19FB80" stroke="#313C36" stroke-width="9"/>
<rect x="2.5" y="197.5" width="77" height="78.5" rx="20.5" fill="url(#paint0_linear_2530_2737)" stroke="#313C36" stroke-width="5"/>
<rect x="382" y="197.5" width="77" height="78.5" rx="20.5" fill="#191B1A" stroke="#313C36" stroke-width="5"/>
<rect x="341.5" y="50.5" width="77" height="78.5" rx="20.5" fill="#191B1A" stroke="#313C36" stroke-width="5"/>
<rect x="43" y="50.5" width="77" height="78.5" rx="20.5" fill="url(#paint1_linear_2530_2737)" stroke="#313C36" stroke-width="5"/>
<rect x="191.5" y="2.5" width="77" height="78.5" rx="20.5" fill="#F4F6F8" stroke="#313C36" stroke-width="5"/>
<path d="M25.2577 244.889L24.9685 244.334H29.8156L29.9349 244.502C31.7055 247.102 34.2872 249.044 37.276 250.025C40.2648 251.006 43.4936 250.971 46.4605 249.925C49.4274 248.88 51.9647 246.883 53.6787 244.245C55.3926 241.608 56.1861 238.477 55.936 235.342L47.2828 235.327L49.8093 242.472L46.7153 246.723L41.1688 230.982L59.4276 231.018L59.5071 231.295C59.7157 231.989 59.8783 232.695 59.9933 233.41C60.1686 234.432 60.2535 235.467 60.2499 236.504C60.2438 240.873 58.6946 245.1 55.8745 248.437C53.0544 251.774 49.1464 254.007 44.8394 254.742C43.8012 254.91 42.75 254.996 41.6984 255C38.2904 255.002 34.9487 254.058 32.0458 252.273C29.1428 250.488 26.793 247.932 25.2577 244.889V244.889ZM28.3698 241.934H24.036L23.9619 241.657C23.7645 240.972 23.6117 240.276 23.5046 239.571C22.7748 235.215 23.6256 230.742 25.9047 226.959C28.1838 223.176 31.7414 220.333 35.9332 218.942C40.125 217.551 44.6745 217.705 48.7629 219.375C52.8513 221.046 56.209 224.123 58.2276 228.051L58.5149 228.606H53.6389L53.5197 228.438C51.7457 225.843 49.1642 223.906 46.1767 222.928C43.1893 221.951 39.9625 221.987 36.9977 223.031C34.0328 224.076 31.4948 226.07 29.7795 228.704C28.0641 231.338 27.2674 234.465 27.5113 237.598L36.2007 237.613L33.6741 230.468L36.7826 226.217L42.3128 241.958L28.3698 241.934Z" fill="white"/>
<path opacity="0.8" d="M230.177 18.6426V36.1461L245.24 42.7568L230.177 18.6426Z" fill="#454A75"/>
<path opacity="0.5" d="M230.179 18.6426L215.113 42.7568L230.179 36.1461V18.6426Z" fill="#454A75"/>
<path opacity="0.8" d="M230.177 54.099V65.9923L245.25 45.511L230.177 54.099Z" fill="#454A75"/>
<path opacity="0.5" d="M230.179 65.9923V54.097L215.113 45.511L230.179 65.9923Z" fill="#454A75"/>
<path d="M230.177 51.3484L245.24 42.7584L230.177 36.1516V51.3484Z" fill="#454A75"/>
<path opacity="0.8" d="M215.113 42.7584L230.179 51.3484V36.1516L215.113 42.7584Z" fill="#454A75"/>
<path d="M103.25 103.999L81.7828 73L60.25 103.999H90.2502L81.7828 92.1679L77.5826 98.315H73.1187L81.7857 85.9557L94.3149 104L103.25 103.999Z" fill="white"/>
<path d="M379.859 77C382.427 77 384.479 77.672 386.015 79.016C387.575 80.36 388.355 82.256 388.355 84.704C388.355 86.96 387.611 88.724 386.123 89.996C384.659 91.244 382.715 91.88 380.291 91.904L380.111 94.604H374.711L374.531 87.908H376.691C378.539 87.908 379.943 87.68 380.903 87.224C381.887 86.768 382.379 85.94 382.379 84.74C382.379 83.9 382.151 83.24 381.695 82.76C381.239 82.28 380.603 82.04 379.787 82.04C378.923 82.04 378.251 82.292 377.771 82.796C377.291 83.276 377.051 83.936 377.051 84.776H371.255C371.207 83.312 371.507 81.992 372.155 80.816C372.827 79.64 373.811 78.716 375.107 78.044C376.427 77.348 378.011 77 379.859 77ZM377.483 103.964C376.403 103.964 375.515 103.652 374.819 103.028C374.147 102.38 373.811 101.588 373.811 100.652C373.811 99.692 374.147 98.888 374.819 98.24C375.515 97.592 376.403 97.268 377.483 97.268C378.539 97.268 379.403 97.592 380.075 98.24C380.771 98.888 381.119 99.692 381.119 100.652C381.119 101.588 380.771 102.38 380.075 103.028C379.403 103.652 378.539 103.964 377.483 103.964Z" fill="white"/>
<path d="M419.859 224C422.427 224 424.479 224.672 426.015 226.016C427.575 227.36 428.355 229.256 428.355 231.704C428.355 233.96 427.611 235.724 426.123 236.996C424.659 238.244 422.715 238.88 420.291 238.904L420.111 241.604H414.711L414.531 234.908H416.691C418.539 234.908 419.943 234.68 420.903 234.224C421.887 233.768 422.379 232.94 422.379 231.74C422.379 230.9 422.151 230.24 421.695 229.76C421.239 229.28 420.603 229.04 419.787 229.04C418.923 229.04 418.251 229.292 417.771 229.796C417.291 230.276 417.051 230.936 417.051 231.776H411.255C411.207 230.312 411.507 228.992 412.155 227.816C412.827 226.64 413.811 225.716 415.107 225.044C416.427 224.348 418.011 224 419.859 224ZM417.483 250.964C416.403 250.964 415.515 250.652 414.819 250.028C414.147 249.38 413.811 248.588 413.811 247.652C413.811 246.692 414.147 245.888 414.819 245.24C415.515 244.592 416.403 244.268 417.483 244.268C418.539 244.268 419.403 244.592 420.075 245.24C420.771 245.888 421.119 246.692 421.119 247.652C421.119 248.588 420.771 249.38 420.075 250.028C419.403 250.652 418.539 250.964 417.483 250.964Z" fill="white"/>
<path d="M236.227 215C237.257 215 238.062 215.878 237.959 216.89L237.594 220.5L246.469 220.5C247.538 220.5 248.396 221.249 248.229 222.117C247.431 226.287 244.806 229.958 241.054 232.556C240.131 233.193 238.77 232.819 238.366 231.887L236.783 228.252L231.673 228.252L242.364 252.301C242.806 253.299 241.91 254.359 240.625 254.359H231.862L231.502 257.476C231.401 258.344 230.657 259 229.772 259H225.301C224.261 259 223.453 258.106 223.571 257.086L223.886 254.359H215.031C213.962 254.359 213.104 253.611 213.271 252.742H213.272C214.07 248.572 216.695 244.901 220.447 242.304C221.37 241.667 222.73 242.041 223.135 242.972L224.717 246.607H229.828L219.137 222.559C218.695 221.561 219.591 220.5 220.876 220.5L229.618 220.5L230.018 216.548C230.107 215.669 230.856 215 231.751 215H236.227Z" fill="#181A1E"/>
<defs>
<linearGradient id="paint0_linear_2530_2737" x1="79.75" y1="193" x2="-3.25001" y2="296.5" gradientUnits="userSpaceOnUse">
<stop stop-color="#0EE7E4" stop-opacity="0.988"/>
<stop offset="0.422532" stop-color="#2989ED" stop-opacity="0.99307"/>
<stop offset="1" stop-color="#4E09F8"/>
</linearGradient>
<linearGradient id="paint1_linear_2530_2737" x1="117.25" y1="53" x2="45.25" y2="127" gradientUnits="userSpaceOnUse">
<stop stop-color="#16CBE5"/>
<stop offset="1" stop-color="#3F3EF3"/>
</linearGradient>
</defs>
</svg>
