<svg width="20" height="15" viewBox="0 0 20 15" fill="none" xmlns="http://www.w3.org/2000/svg">
<path d="M17.5354 1.8749C17.5354 1.87444 17.5352 1.874 17.5348 1.87371C16.18 0.762028 14.5316 0.110303 12.8119 0.00507311C12.7545 0.00155826 12.699 0.0262193 12.6625 0.0706828C12.5788 0.172461 12.6279 0.326842 12.754 0.364816C12.8675 0.398965 12.9803 0.43495 13.0925 0.472749C13.5647 0.631836 13.2957 1.15873 12.8087 1.05334C12.0206 0.882782 11.218 0.780076 10.4088 0.7475C8.19115 0.658218 5.98321 1.0981 3.95339 2.0336C3.81921 2.0988 3.72415 1.94993 3.8469 1.86517C4.89153 1.1438 6.04252 0.60145 7.2562 0.260798C7.34699 0.235314 7.38328 0.125212 7.32417 0.051729C7.29804 0.019237 7.25787 0.00117846 7.21625 0.0036255C6.00929 0.0745767 4.83707 0.414809 3.77641 0.994381C2.86634 1.49166 2.22409 2.35087 1.83144 3.31073C1.06053 5.19527 0.526428 7.17361 0.240853 9.19644C-0.0406331 11.1903 0.499873 13.3895 2.28617 14.3189C2.90812 14.6426 3.57569 14.8539 4.26057 14.9464C4.70658 15.0066 5.54322 14.5934 5.81889 14.2377C5.85287 14.1938 5.88751 14.149 5.92258 14.1036C6.14033 13.8213 5.99737 13.4079 5.66915 13.2688C5.0072 12.9884 4.40617 12.5719 3.90206 12.0447C3.79398 11.9316 3.94536 11.7632 4.07303 11.8535C5.69924 12.7788 7.50268 13.3149 9.35242 13.4229C11.2022 13.531 13.0518 13.2083 14.767 12.4782C15.1711 12.3192 15.4777 12.7126 15.1061 12.9372C14.8774 13.0754 14.6389 13.1965 14.3923 13.2992C14.0438 13.4444 13.8907 13.8841 14.1231 14.1817C14.2624 14.3601 14.3927 14.5256 14.4991 14.6602C14.6686 14.8747 14.925 15.0057 15.198 14.9929C16.0688 14.9518 16.9235 14.7214 17.7065 14.3147C19.4945 13.3861 20.0433 11.1891 19.7642 9.19387C19.4086 6.65119 18.6578 4.1787 17.5355 1.87557C17.5354 1.87536 17.5354 1.87513 17.5354 1.8749ZM8.54453 8.63983C8.55626 8.88958 8.52041 9.13927 8.43904 9.37449C8.35767 9.6097 8.2324 9.82578 8.07046 10.0102C7.90853 10.1947 7.71314 10.3438 7.49558 10.4491C7.27802 10.5544 7.04262 10.6137 6.80295 10.6235C6.3226 10.5865 5.87346 10.3614 5.54567 9.99348C5.21789 9.62554 5.03572 9.14198 5.03572 8.63983C5.03572 8.13769 5.21789 7.65413 5.54567 7.28619C5.87346 6.91826 6.3226 6.69317 6.80295 6.65612H6.83104C7.29247 6.68055 7.72734 6.88851 8.04611 7.23716C8.36487 7.58582 8.54326 8.04863 8.54453 8.53029V8.63983ZM12.9005 10.3058C12.4517 10.263 12.0358 10.0418 11.7392 9.68799C11.4426 9.33417 11.2881 8.8749 11.3076 8.40546C11.3272 7.93601 11.5193 7.49242 11.8442 7.16671C12.169 6.84099 12.6017 6.65816 13.0524 6.65612C13.2921 6.666 13.5275 6.72528 13.7451 6.83055C13.9626 6.93582 14.158 7.08499 14.3199 7.26944C14.4819 7.45389 14.6071 7.66997 14.6885 7.90518C14.7699 8.1404 14.8057 8.39009 14.794 8.63983C14.7755 8.8792 14.7118 9.11238 14.6064 9.32593C14.5011 9.53947 14.3562 9.72916 14.1802 9.88404C14.0042 10.0389 13.8004 10.1559 13.5808 10.2283C13.3612 10.3007 13.13 10.327 12.9005 10.3058Z" fill="white"/>
</svg>
