<svg width="20" height="22" viewBox="0 0 20 22" fill="none" xmlns="http://www.w3.org/2000/svg">
<path d="M20 14.4375V2.0625C20 0.923398 19.0402 0 17.8571 0H4.28571C1.91875 0 0 1.8468 0 4.125V17.875C0 20.1532 1.91875 22 4.28571 22H18.5714C19.3603 22 20 21.3843 20 20.6637C20 20.1601 19.705 19.739 19.2857 19.4992V16.0033C19.7232 15.5891 20 15.0477 20 14.4375ZM17.1429 19.25H4.28571C3.49688 19.25 2.85714 18.6343 2.85714 17.875C2.85714 17.1157 3.49688 16.5 4.28571 16.5H17.1429V19.25Z" fill="white"/>
</svg>
