<svg width="140" height="26" viewBox="0 0 140 26" fill="none" xmlns="http://www.w3.org/2000/svg">
<path d="M39.7028 1.67081C37.596 1.22918 36.1781 1.22217 36.0151 1.22217L34.6868 1.22747C34.1662 1.22955 33.7018 1.55525 33.5225 2.04406L29.3934 13.3005L25.4664 24.0058C25.1683 24.8186 25.7699 25.6802 26.6358 25.6802H46.1193C46.8375 25.6802 47.4121 25.0727 47.3 24.3633C46.7636 20.9691 45.0018 17.9812 42.4806 15.8689C41.8618 15.3504 40.947 15.654 40.674 16.4138L39.6116 19.3712H33.8873L36.2763 12.8553L38.1324 7.79584C38.6985 7.89749 39.2558 8.02542 39.8044 8.17964C42.3898 8.9323 45.8765 10.5535 48.8916 14.056C49.3382 14.5747 50.1122 14.6864 50.6597 14.2756L53.7286 11.9732C54.2762 11.5623 54.3919 10.7843 53.9583 10.2546C50.3101 5.79845 45.2813 2.78803 39.7028 1.67081Z" fill="#19FB80"/>
<path d="M14.5199 25.231C16.6266 25.6727 18.0445 25.6797 18.2075 25.6797L19.5358 25.6744C20.0565 25.6723 20.5209 25.3466 20.7002 24.8578L24.8292 13.6014L28.7562 2.89609C29.0544 2.08322 28.4527 1.22162 27.5869 1.22162L8.10338 1.22162C7.38518 1.22162 6.81056 1.82915 6.92266 2.53855C7.45904 5.93277 9.22084 8.92065 11.7421 11.033C12.3609 11.5514 13.2757 11.2478 13.5486 10.4881L14.611 7.53066L20.3353 7.53066L17.9464 14.0465L16.0903 19.106C15.5242 19.0044 14.9668 18.8764 14.4182 18.7222C11.8328 17.9696 8.3462 16.3484 5.33105 12.8459C4.88447 12.3271 4.11046 12.2154 3.56293 12.6262L0.494062 14.9287C-0.0535149 15.3395 -0.169267 16.1176 0.264384 16.6473C3.91259 21.1034 8.94139 24.1138 14.5199 25.231Z" fill="#19FB80"/>
<path d="M77.9328 7.97556H77.7934C76.9292 6.72067 75.3402 5.77252 73.333 5.77252C69.4023 5.74464 66.6982 8.86793 66.6982 13.1625C66.6982 17.5407 69.5417 20.4966 73.3051 20.4966C75.3402 20.4687 76.9292 19.5206 77.7934 18.2378H77.9328V20.6361C77.9328 21.4448 77.431 21.891 76.6225 21.891H70.3926C69.353 21.891 68.5103 22.7337 68.5103 23.7733V23.7733C68.5103 24.8129 69.353 25.6557 70.3926 25.6557H77.431C80.1351 25.6557 81.6683 24.1777 81.6683 21.5006V8.0586C81.6683 7.02705 80.8321 6.19082 79.8005 6.19082H79.7175C78.7318 6.19082 77.9328 6.98988 77.9328 7.97556V7.97556ZM74.2251 16.9272C72.0228 16.9272 70.4895 15.3097 70.4895 13.1346C70.4895 10.9594 72.0228 9.342 74.2251 9.342C76.3995 9.342 77.9328 10.9873 77.9328 13.1346C77.9328 15.1982 76.4553 16.9272 74.2251 16.9272Z" fill="white"/>
<path d="M84.4626 16.0627C84.4626 18.5725 85.9679 20.0783 88.6163 20.0783H89.3823C90.3911 20.0783 91.2089 19.2606 91.2089 18.2518V18.2518C91.2089 17.243 90.3911 16.4252 89.3823 16.4252H89.3411C88.6442 16.4252 88.226 16.0348 88.226 15.3934V1.88171C88.226 0.84247 87.3835 0 86.3443 0V0C85.305 0 84.4626 0.842472 84.4626 1.88171V16.0627Z" fill="white"/>
<path d="M133.365 5.77252C131.386 5.77252 129.769 6.72067 128.905 7.97556H128.766V7.97556C128.766 6.98988 127.967 6.19082 126.981 6.19082H126.898C125.866 6.19082 125.03 7.02705 125.03 8.0586V23.7879C125.03 24.8194 125.866 25.6557 126.898 25.6557V25.6557C127.929 25.6557 128.766 24.8194 128.766 23.7879V18.2378H128.905C129.769 19.5206 131.358 20.4687 133.393 20.4966C137.157 20.4966 140 17.5407 140 13.1625C140 8.86793 137.296 5.74464 133.365 5.77252ZM132.473 16.9272C130.243 16.9272 128.766 15.1982 128.766 13.1346C128.766 10.9873 130.299 9.342 132.473 9.342C134.676 9.342 136.209 10.9594 136.209 13.1346C136.209 15.3097 134.676 16.9272 132.473 16.9272Z" fill="white"/>
<path d="M115.68 5.70411C113.736 5.70411 111.857 6.46794 110.52 7.80058L110.455 7.85874C108.835 9.30066 106.393 9.3017 104.772 7.86116V7.86116C103.376 6.46942 101.524 5.70264 99.5524 5.70264C95.4685 5.70264 92.147 9.02833 92.147 13.1164C92.147 17.2044 95.4685 20.5301 99.5524 20.5301C101.496 20.5301 103.375 19.7663 104.712 18.4336L104.775 18.3768C106.396 16.9342 108.84 16.9332 110.462 18.3745V18.3745C111.862 19.7574 113.714 20.5198 115.68 20.5198C119.764 20.5198 123.085 17.2 123.085 13.1178C123.085 9.03571 119.764 5.70411 115.68 5.70411ZM119.026 13.1178C119.026 14.9558 117.525 16.4524 115.68 16.4524C114.772 16.4524 113.937 16.0978 113.269 15.4256V15.4256C111.885 14.1968 111.899 12.0231 113.282 10.7938V10.7938L113.317 10.7599C113.945 10.129 114.783 9.78329 115.68 9.78329C117.525 9.78329 119.026 11.2784 119.026 13.1178ZM101.95 15.4404L101.915 15.4743C101.287 16.1037 100.449 16.4509 99.5539 16.4509C97.7088 16.4509 96.2074 14.9558 96.2074 13.1164C96.2074 11.277 97.7088 9.78181 99.5539 9.78181C100.462 9.78181 101.296 10.1364 101.965 10.8086V10.8086C103.348 12.0373 103.333 14.2116 101.95 15.4404V15.4404Z" fill="white"/>
</svg>
