<svg width="63" height="60" viewBox="0 0 63 60" fill="none" xmlns="http://www.w3.org/2000/svg">
<rect y="0.297852" width="62.677" height="59.7025" rx="10" fill="#222725"/>
<path d="M41.9692 41.2977V35.5517H33.8432L27.4512 36.3337C27.4512 35.1777 28.5052 34.9397 30.0012 34.5657L35.1012 33.3077C39.1812 32.2877 42.0372 30.2817 42.0372 25.9977C42.0372 21.3397 39.1812 18.1777 31.9732 18.1777C23.9492 18.1777 20.8212 22.3597 20.8212 26.9497V27.4597H27.0772V27.0177C27.0772 24.9437 27.9272 23.9917 31.7352 23.9917C35.2032 23.9917 35.6452 24.7397 35.6452 25.8957C35.6452 26.9497 35.0672 27.3917 33.6052 27.8677L27.4172 29.8397C22.5212 31.4037 20.7192 33.4097 20.7192 37.2857V41.2977H41.9692Z" fill="white"/>
</svg>
