<svg width="38" height="38" viewBox="0 0 38 38" fill="none" xmlns="http://www.w3.org/2000/svg">
<path d="M17.475 23.7969V26.5022C17.2841 28.9543 15.1162 30.8066 12.6074 30.6467C10.0986 30.8066 7.91708 28.9543 7.7262 26.5022V23.7969C7.7262 26.089 9.90774 27.7149 12.6074 27.7149C15.3071 27.7149 17.475 26.0757 17.475 23.7969V23.7969Z" stroke="#19FB80" stroke-width="2" stroke-linecap="round" stroke-linejoin="round"/>
<path d="M17.4753 20.1315C17.4753 20.7712 17.298 21.3976 16.9571 21.944C15.9754 23.3299 14.3256 24.1295 12.594 24.0495C10.8624 24.1295 9.22628 23.3299 8.23095 21.944C7.89008 21.3976 7.71283 20.7712 7.71283 20.1315C7.72646 18.9988 8.24458 17.9327 9.13084 17.213C10.0989 16.4134 11.3124 15.987 12.5804 16.0003C13.8484 16.0003 15.0619 16.4134 16.03 17.213C16.9299 17.9193 17.4616 18.9988 17.4753 20.1315V20.1315Z" stroke="#19FB80" stroke-width="2" stroke-linecap="round" stroke-linejoin="round"/>
<path d="M17.475 20.1317V23.7965C17.475 26.0887 15.2934 27.7145 12.6074 27.7145C9.92138 27.7145 7.7262 26.0754 7.7262 23.7965V20.1317C7.91708 17.6796 10.0986 15.8272 12.6074 15.9872C13.8754 15.9872 15.0889 16.4003 16.057 17.1999C16.9432 17.9328 17.4614 18.999 17.475 20.1317V20.1317Z" stroke="#19FB80" stroke-width="2" stroke-linecap="round" stroke-linejoin="round"/>
<path d="M32.8145 15.9472V18.6925C32.8145 19.4254 32.2009 20.0385 31.451 20.0518H28.7786C27.2924 20.0784 26.0108 18.999 25.8335 17.5597C25.7517 16.7468 26.0517 15.9472 26.6516 15.3875C27.1697 14.8677 27.8787 14.5879 28.615 14.5879H31.451C32.2009 14.6012 32.8145 15.2142 32.8145 15.9472V15.9472Z" stroke="#19FB80" stroke-width="2" stroke-linecap="round" stroke-linejoin="round"/>
<path d="M5.54497 15.3208V12.6555C5.31318 9.3105 7.84923 6.40531 11.2579 6.07215C11.626 6.01884 11.9942 5.99219 12.3623 5.99219H24.6335C24.9744 5.99219 25.3153 6.00551 25.6561 6.05882C29.1057 6.352 31.6827 9.28385 31.4509 12.6555V14.5878H28.6148C27.0605 14.5878 25.8197 15.8405 25.8197 17.3464C25.8197 17.4131 25.8197 17.4797 25.8197 17.5596C25.997 18.9989 27.2787 20.0784 28.7648 20.0517H31.4372V21.9841C31.6554 25.449 28.9421 28.4341 25.3971 28.6473C25.138 28.6607 24.8789 28.6607 24.6199 28.6473H21.2112" stroke="#19FB80" stroke-width="2" stroke-linecap="round" stroke-linejoin="round"/>
</svg>
