<svg width="63" height="61" viewBox="0 0 63 61" fill="none" xmlns="http://www.w3.org/2000/svg">
<rect y="0.595703" width="62.677" height="59.7025" rx="10" fill="#222725"/>
<path d="M30.2638 41.9356C37.2678 41.9356 41.3478 39.6576 41.3478 35.1696C41.3478 31.7016 39.0358 30.1036 35.6358 29.7296V29.2876C38.6618 28.9476 40.2598 27.2476 40.2598 24.5956C40.2598 20.4816 36.8258 18.4756 30.5018 18.4756C22.7498 18.4756 18.9758 21.7056 18.9758 26.7716V26.8056H25.7758V26.7036C25.7758 25.0036 26.3878 24.5956 29.8898 24.5956C33.2898 24.5956 33.9018 24.9696 33.9018 26.0576C33.9018 26.9076 33.4938 27.3496 32.2358 27.3496H25.9458V32.5856H32.7118C34.2078 32.5856 34.8538 32.9596 34.8538 34.0816C34.8538 35.4756 33.8338 35.8156 29.9578 35.8156C25.9118 35.8156 25.7758 35.4076 25.7758 33.7076V33.0956H18.9758V33.6396C18.9758 39.0456 22.5798 41.9356 30.2638 41.9356Z" fill="white"/>
</svg>
