<svg width="66" height="30" viewBox="0 0 66 30" fill="none" xmlns="http://www.w3.org/2000/svg">
<path d="M48.1789 0.545401C45.6224 0.00948319 43.9018 0.000976562 43.704 0.000976562L42.0921 0.00741299C41.4604 0.00993589 40.8968 0.405173 40.6792 0.998331L35.6687 14.6579L30.9033 27.6487C30.5415 28.6351 31.2716 29.6806 32.3223 29.6806H55.9653C56.8368 29.6806 57.5341 28.9434 57.3981 28.0825C56.7472 23.9637 54.6093 20.3379 51.5498 17.7746C50.7989 17.1455 49.6888 17.5139 49.3576 18.4358L48.0683 22.0246H41.122L44.0209 14.1177L46.2733 7.97807C46.9602 8.10142 47.6366 8.25666 48.3023 8.44381C51.4397 9.35715 55.6706 11.3244 59.3295 15.5747C59.8714 16.2042 60.8107 16.3397 61.4751 15.8413L65.1992 13.0472C65.8636 12.5487 66.0041 11.6045 65.4779 10.9617C61.0508 5.55425 54.9484 1.90114 48.1789 0.545401Z" fill="#19FB80"/>
<path d="M17.6198 29.1353C20.1763 29.6712 21.8969 29.6797 22.0947 29.6797L23.7066 29.6733C24.3384 29.6707 24.9019 29.2755 25.1195 28.6823L30.1301 15.0228L34.8954 2.032C35.2573 1.04559 34.5271 4.5736e-05 33.4764 4.56441e-05L9.83339 4.35772e-05C8.96186 4.3501e-05 8.26457 0.737281 8.4006 1.59813C9.0515 5.71698 11.1894 9.34275 14.2489 11.906C14.9998 12.5352 16.11 12.1668 16.4411 11.2448L17.7304 7.65601L24.6767 7.65601L21.7778 15.5629L19.5254 21.7026C18.8385 21.5792 18.1621 21.424 17.4964 21.2369C14.3591 20.3235 10.1281 18.3562 6.4692 14.106C5.92728 13.4765 4.98803 13.3409 4.3236 13.8394L0.599557 16.6335C-0.0649251 17.132 -0.20539 18.0761 0.320844 18.7189C4.74791 24.1264 10.8503 27.7795 17.6198 29.1353Z" fill="#19FB80"/>
</svg>
