<svg width="15" height="11" viewBox="0 0 15 11" fill="none" xmlns="http://www.w3.org/2000/svg">
<path d="M0 0.916667C0 0.410406 0.410406 0 0.916667 0H14.0833C14.5896 0 15 0.410406 15 0.916667C15 1.42293 14.5896 1.83333 14.0833 1.83333H0.916666C0.410405 1.83333 0 1.42293 0 0.916667ZM0 5.5C0 4.99374 0.410406 4.58333 0.916667 4.58333H14.0833C14.5896 4.58333 15 4.99374 15 5.5C15 6.00626 14.5896 6.41667 14.0833 6.41667H0.916666C0.410405 6.41667 0 6.00626 0 5.5ZM0 10.0833C0 9.57707 0.410406 9.16667 0.916667 9.16667H14.0833C14.5896 9.16667 15 9.57707 15 10.0833C15 10.5896 14.5896 11 14.0833 11H0.916666C0.410405 11 0 10.5896 0 10.0833Z" fill="white"/>
</svg>
