<svg width="33" height="33" viewBox="0 0 33 33" fill="none" xmlns="http://www.w3.org/2000/svg">
<rect width="33" height="33" rx="4" fill="#222725"/>
<path d="M9.1348 12.856C9.14583 12.7495 9.13106 12.6419 9.09168 12.542C9.05229 12.442 8.98939 12.3524 8.908 12.2803L7.2268 10.2966V10H12.445L16.4788 18.6669L20.0248 10H25V10.2966L23.5627 11.645C23.5018 11.6907 23.4548 11.7517 23.4267 11.8213C23.3987 11.891 23.3906 11.9667 23.4034 12.0405V21.9578C23.3906 22.0315 23.3987 22.1073 23.4267 22.1769C23.4548 22.2466 23.5018 22.3075 23.5627 22.3533L24.9667 23.7025V24H17.9071V23.7034L19.3615 22.3209C19.5046 22.1809 19.5046 22.1397 19.5046 21.9262V13.9095L15.4618 23.9668H14.9164L10.2094 13.9095V20.6505C10.1707 20.9331 10.267 21.2192 10.4704 21.424L12.3613 23.671V23.9668H7V23.671L8.89 21.424C8.99 21.3225 9.06422 21.1998 9.10672 21.0655C9.14923 20.9312 9.15884 20.7891 9.1348 20.6505V12.856Z" fill="white"/>
</svg>
