<svg width="33" height="33" viewBox="0 0 33 33" fill="none" xmlns="http://www.w3.org/2000/svg">
<rect width="33" height="33" rx="4" fill="#222725"/>
<path d="M23.6586 11.7492C22.3487 10.693 20.7498 10.0816 19.0845 10L18.8602 10.2683C20.343 10.6662 21.7249 11.386 22.9124 12.3789C21.0556 11.356 18.9952 10.781 16.8884 10.6977C14.7816 10.6143 12.684 11.0249 10.7557 11.898C10.2319 12.1481 9.88795 12.3333 9.8158 12.3698C11.0657 11.3369 12.5199 10.5947 14.0776 10.1944L13.9184 10C12.2552 10.0826 10.6585 10.694 9.35029 11.7492C7.85777 14.762 7.05406 18.0831 7 21.4611C7.56059 22.2683 8.30646 22.922 9.17186 23.3644C10.0373 23.8067 10.9956 24.0243 11.9625 23.9978C11.9625 23.9978 12.5684 23.2477 13.0566 22.609C11.9131 22.3145 10.906 21.6203 10.2092 20.6462C10.4444 20.8132 10.8417 21.044 10.8694 21.0632C12.4143 21.9268 14.1275 22.4272 15.8848 22.5281C17.6421 22.6289 19.3992 22.3277 21.0286 21.6463C21.6862 21.3922 22.3138 21.0632 22.8996 20.6654C22.1731 21.6575 21.1309 22.3582 19.9533 22.6465C20.4415 23.2761 21.0286 23.9978 21.0286 23.9978C21.9963 24.0213 22.9549 23.8025 23.8212 23.3604C24.6876 22.9183 25.4355 22.2664 26 21.4611C25.9533 18.0835 25.1524 14.7618 23.6586 11.7502V11.7492ZM15.1173 18.0638C15.1284 18.2969 15.0944 18.53 15.0171 18.7495C14.9398 18.9691 14.8208 19.1707 14.6669 19.3429C14.5131 19.515 14.3275 19.6543 14.1208 19.7525C13.9141 19.8508 13.6905 19.9061 13.4628 19.9153C13.0065 19.8807 12.5798 19.6707 12.2684 19.3272C11.957 18.9838 11.7839 18.5325 11.7839 18.0638C11.7839 17.5952 11.957 17.1439 12.2684 16.8004C12.5798 16.457 13.0065 16.247 13.4628 16.2124H13.4895C13.9278 16.2352 14.341 16.4293 14.6438 16.7547C14.9466 17.0801 15.1161 17.5121 15.1173 17.9616V18.0638ZM19.2555 19.6187C18.8291 19.5788 18.434 19.3724 18.1523 19.0421C17.8705 18.7119 17.7237 18.2832 17.7422 17.8451C17.7608 17.4069 17.9433 16.9929 18.252 16.6889C18.5606 16.3849 18.9716 16.2143 19.3998 16.2124C19.6275 16.2216 19.8511 16.2769 20.0578 16.3752C20.2645 16.4734 20.4501 16.6127 20.6039 16.7848C20.7578 16.957 20.8768 17.1586 20.9541 17.3782C21.0314 17.5977 21.0655 17.8307 21.0543 18.0638C21.0368 18.2872 20.9762 18.5049 20.8761 18.7042C20.776 18.9035 20.6384 19.0805 20.4712 19.2251C20.3039 19.3697 20.1104 19.4789 19.9018 19.5464C19.6931 19.614 19.4735 19.6385 19.2555 19.6187Z" fill="white"/>
</svg>
