<svg width="33" height="33" viewBox="0 0 33 33" fill="none" xmlns="http://www.w3.org/2000/svg">
<rect width="33" height="33" rx="4" fill="#222725"/>
<path d="M23.9514 13.738C23.9641 13.9018 23.964 14.0667 23.964 14.2306C23.9843 17.0671 22.7838 19.7949 20.6264 21.8144C18.469 23.8339 15.5313 24.9797 12.4593 25H12.298C10.0649 25.0047 7.87786 24.4136 6 23.2978C6.32905 23.331 6.65989 23.3467 6.99089 23.3446C8.8368 23.3488 10.6304 22.7788 12.0825 21.7265C11.2267 21.7123 10.3972 21.4516 9.70971 20.9808C9.02223 20.5101 8.51118 19.8528 8.24795 19.1009C8.50408 19.1384 8.76291 19.1579 9.02223 19.1594C9.38655 19.1587 9.7493 19.1154 10.1019 19.0307C9.17404 18.8573 8.33972 18.393 7.74037 17.7165C7.14102 17.04 6.81353 16.1929 6.81345 15.3189V15.2753C7.38181 15.5681 8.01701 15.7328 8.66736 15.7561C7.79432 15.2213 7.17571 14.3986 6.93816 13.4564C6.70062 12.5142 6.8621 11.5238 7.38956 10.6879C8.41944 11.859 9.70442 12.8172 11.1612 13.5002C12.6179 14.1833 14.2139 14.576 15.8456 14.6529C15.7798 14.3679 15.7458 14.0773 15.7442 13.7859C15.7452 13.0265 15.9932 12.2849 16.4561 11.6571C16.919 11.0294 17.5755 10.5446 18.3404 10.2654C19.1052 9.98625 19.9433 9.92565 20.7459 10.0915C21.5485 10.2573 22.2787 10.6419 22.8418 11.1954C23.7594 11.0315 24.6393 10.722 25.4423 10.2805C25.1365 11.1554 24.4953 11.8973 23.6391 12.3667C24.4533 12.2811 25.2491 12.0835 26 11.7805C25.4385 12.5351 24.7432 13.1969 23.9433 13.738H23.9514Z" fill="white"/>
</svg>
