<svg width="33" height="33" viewBox="0 0 33 33" fill="none" xmlns="http://www.w3.org/2000/svg">
<rect width="33" height="33" rx="4" fill="#222725"/>
<path d="M24 19.5V10.5C24 9.67156 23.2801 9 22.3929 9H12.2143C10.4391 9 9 10.3431 9 12V22C9 23.6569 10.4391 25 12.2143 25H22.9286C23.5202 25 24 24.5522 24 24.0281C24 23.6619 23.7788 23.3556 23.4643 23.1812V20.6388C23.7924 20.3375 24 19.9438 24 19.5ZM21.8571 23H12.2143C11.6227 23 11.1429 22.5522 11.1429 22C11.1429 21.4478 11.6227 21 12.2143 21H21.8571V23Z" fill="white"/>
</svg>
