<svg xmlns="http://www.w3.org/2000/svg" xmlns:xlink="http://www.w3.org/1999/xlink" width="500" zoomAndPan="magnify" viewBox="0 0 375 374.999991" height="500" preserveAspectRatio="xMidYMid meet" version="1.0"><defs><g/></defs><g fill="#004fff" fill-opacity="1"><g transform="translate(7.358911, 221.300683)"><g><path d="M 22 0 L 22 -24.800781 L 49.597656 -24.800781 L 49.597656 0 L 65.597656 0 L 65.597656 -22.5 C 65.597656 -28 62.597656 -31 57.097656 -31 L 46.800781 -31 L 46.800781 -35 C 55.296875 -36 64.699219 -39.199219 64.699219 -50.796875 C 64.699219 -66.597656 50.097656 -70.5 33.300781 -70.5 L 6 -70.5 L 6 0 Z M 22 -56.5 L 33.300781 -56.5 C 42.800781 -56.5 48.699219 -56.5 48.699219 -47.597656 C 48.699219 -38.800781 42.800781 -38.800781 33.300781 -38.800781 L 22 -38.800781 Z M 22 -56.5 "/></g></g></g><g fill="#004fff" fill-opacity="1"><g transform="translate(78.956154, 221.300683)"><g><path d="M 4 -26.199219 C 4 -8.601562 14.898438 1 35.800781 1 C 56.699219 1 67.699219 -8.601562 67.699219 -26.199219 L 67.699219 -70.5 L 51.699219 -70.5 L 51.699219 -33.300781 C 51.699219 -20.699219 50.5 -13 35.800781 -13 C 21.097656 -13 20 -20.699219 20 -33.300781 L 20 -70.5 L 4 -70.5 Z M 4 -26.199219 "/></g></g></g><g fill="#004fff" fill-opacity="1"><g transform="translate(150.653384, 221.300683)"><g><path d="M 32 0 C 50.398438 0 65.097656 -2.699219 65.097656 -18.699219 C 65.097656 -33.699219 53.699219 -34.699219 43 -35.097656 L 43 -39.097656 C 50.5 -39.699219 59.898438 -40 59.898438 -53.199219 C 59.898438 -67.097656 50.398438 -70.5 30.800781 -70.5 L 6 -70.5 L 6 0 Z M 22 -56.5 L 32.800781 -56.5 C 39.300781 -56.5 43.898438 -56.5 43.898438 -50.097656 C 43.898438 -43.699219 39.300781 -43.699219 32.800781 -43.699219 L 22 -43.699219 Z M 22 -29.699219 L 34 -29.699219 C 43.5 -29.699219 49.097656 -29.699219 49.097656 -21.800781 C 49.097656 -14 43.5 -14 34 -14 L 22 -14 Z M 22 -29.699219 "/></g></g></g><g fill="#004fff" fill-opacity="1"><g transform="translate(220.750696, 221.300683)"><g><path d="M 53 -70.5 L 5 -70.5 L 5 -56.5 L 21 -56.5 L 21 -14 L 5 -14 L 5 0 L 53 0 L 53 -14 L 37 -14 L 37 -56.5 L 53 -56.5 Z M 53 -70.5 "/></g></g></g><g fill="#004fff" fill-opacity="1"><g transform="translate(278.748457, 221.300683)"><g><path d="M 5 -35.300781 C 5 -14.699219 18.800781 1 41.199219 1 C 60.898438 1 73.898438 -9.800781 76 -27.300781 L 60 -27.300781 C 58.398438 -18 51 -13 41.398438 -13 C 29.097656 -13 21 -20.699219 21 -35.300781 C 21 -49.796875 29.097656 -57.5 41.398438 -57.5 C 51 -57.5 58.398438 -52.597656 60 -43.300781 L 76 -43.300781 C 73.898438 -60.699219 60.898438 -71.5 41.199219 -71.5 C 18.800781 -71.5 5 -55.796875 5 -35.300781 Z M 5 -35.300781 "/></g></g></g></svg>