<svg width="22" height="18" viewBox="0 0 22 18" fill="none" xmlns="http://www.w3.org/2000/svg">
<path d="M22 2.11765C21.1902 2.48824 20.3174 2.73176 19.413 2.84824C20.3384 2.28706 21.0535 1.39765 21.3901 0.328235C20.5172 0.857647 19.5497 1.22824 18.5296 1.44C17.6989 0.529412 16.5316 0 15.2065 0C12.7352 0 10.7161 2.03294 10.7161 4.54235C10.7161 4.90235 10.7581 5.25177 10.8317 5.58C7.08796 5.38941 3.7543 3.57882 1.53537 0.836471C1.14627 1.50353 0.92543 2.28706 0.92543 3.11294C0.92543 4.69059 1.71415 6.08824 2.93403 6.88235C2.18738 6.88235 1.49331 6.67059 0.883365 6.35294C0.883365 6.35294 0.883365 6.35294 0.883365 6.38471C0.883365 8.58706 2.43977 10.4294 4.50096 10.8424C4.12237 10.9482 3.72275 11.0012 3.31262 11.0012C3.02868 11.0012 2.74474 10.9694 2.47132 10.9165C3.0392 12.7059 4.69025 14.04 6.67782 14.0718C5.14245 15.3 3.19694 16.02 1.07266 16.02C0.715105 16.02 0.357553 15.9988 0 15.9565C1.99809 17.2482 4.37476 18 6.91969 18C15.2065 18 19.76 11.0753 19.76 5.07176C19.76 4.87059 19.76 4.68 19.7495 4.47882C20.6329 3.84353 21.3901 3.03882 22 2.11765Z" fill="white"/>
</svg>
